<?xml version="1.0" encoding="utf-8"?>
<!-- Generator: Adobe Illustrator 23.1.0, SVG Export Plug-In . SVG Version: 6.00 Build 0)  -->
<svg version="1.1" id="Layer_1" xmlns="http://www.w3.org/2000/svg" xmlns:xlink="http://www.w3.org/1999/xlink" x="0px" y="0px"
	 viewBox="0 0 15 15" style="enable-background:new 0 0 15 15;" xml:space="preserve">
<g>
	<path d="M2.5,1.1c0.3,0,0.6,0,1.1,0c0.4,0,0.9,0,1.3,0c0.6,0,1.2,0,1.7,0c0.5,0,0.9,0,1.1,0c1.4,0,2.4,0.3,3.1,0.8
		c0.7,0.5,1,1.2,1,2.1c0,0.4-0.1,0.9-0.3,1.3c-0.2,0.4-0.5,0.8-1,1.1C10.1,6.8,9.5,7,8.8,7.2v0c1,0.1,1.8,0.3,2.4,0.7
		c0.6,0.3,1,0.7,1.3,1.2c0.2,0.5,0.4,0.9,0.4,1.5c0,0.7-0.2,1.4-0.6,1.9c-0.4,0.5-0.9,1-1.6,1.2C10,14,9.2,14.1,8.2,14.1
		c-0.3,0-0.7,0-1.2,0c-0.5,0-1.2,0-2,0c-0.5,0-0.9,0-1.4,0c-0.5,0-0.8,0-1.1,0v-0.4c0.4,0,0.7-0.1,0.9-0.1c0.2-0.1,0.3-0.2,0.4-0.4
		s0.1-0.6,0.1-1V3c0-0.5,0-0.8-0.1-1C3.8,1.8,3.6,1.7,3.4,1.6S2.9,1.4,2.5,1.4V1.1z M7.4,1.4c-0.5,0-0.9,0.1-1.1,0.3
		C6.2,2,6.1,2.4,6.1,3v9.2c0,0.4,0,0.8,0.1,1c0.1,0.2,0.2,0.4,0.4,0.4c0.2,0.1,0.5,0.1,0.8,0.1c1.1,0,1.9-0.3,2.4-0.8
		s0.7-1.4,0.7-2.4c0-0.9-0.3-1.7-0.7-2.2S8.5,7.5,7.4,7.5H5.6V7.2h1.6c0.7,0,1.2-0.1,1.6-0.4c0.4-0.3,0.6-0.6,0.8-1.1s0.2-1,0.2-1.5
		c0-0.9-0.2-1.6-0.5-2.1S8.2,1.4,7.4,1.4z"/>
</g>
</svg>
