<?xml version="1.0" encoding="utf-8"?>
<!-- Generator: Adobe Illustrator 23.1.0, SVG Export Plug-In . SVG Version: 6.00 Build 0)  -->
<svg version="1.1" id="Layer_1" xmlns="http://www.w3.org/2000/svg" xmlns:xlink="http://www.w3.org/1999/xlink" x="0px" y="0px"
	 viewBox="0 0 120 40" style="enable-background:new 0 0 120 40;" xml:space="preserve">
<style type="text/css">
	.st0{fill:#231F20;}
</style>
<g>
	<path class="st0" d="M8.3,6.7v21.8c-0.6-0.2-1.1-0.2-1.7-0.2s-1,0.2-1.5,0.2c-0.5,0.1-0.8,0.4-1.1,0.6l-0.4-0.2
		c0.1-0.2,0.2-0.6,0.2-0.8s0-0.6,0-0.8V10.1c0-0.8-0.2-1.4-0.3-1.8C3.2,7.8,2.7,7.6,2,7.6V7c0.6,0,1.2,0.1,1.8,0.1
		c0.9,0,1.7,0,2.4-0.1C6.9,6.9,7.6,6.8,8.3,6.7z M12.5,13.7c1.4,0,2.7,0.6,3.5,1.8c1,1.2,1.4,3,1.4,5.4c0,2-0.3,3.6-0.9,4.8
		c-0.6,1.2-1.4,2.1-2.3,2.6s-2.1,0.7-3.2,0.7c-0.7,0-1.4-0.1-1.9-0.2c-0.6-0.2-1.1-0.5-1.6-1l0.4-0.2c0.3,0.3,0.6,0.6,1,0.6
		s0.7,0.2,1.1,0.2c1,0,1.7-0.6,2.1-1.8c0.5-1.2,0.7-3,0.7-5.3c0-1.6-0.1-2.9-0.2-3.9s-0.4-1.5-0.7-1.9c-0.3-0.4-0.7-0.6-1.1-0.6
		c-0.6,0-1.1,0.2-1.6,0.7s-0.7,1-0.8,1.8l-0.1-1.2c0.4-0.9,1-1.6,1.7-2C10.7,13.9,11.6,13.7,12.5,13.7z"/>
	<path class="st0" d="M26.5,13.7c1.4,0,2.7,0.2,3.7,0.7c1,0.5,1.8,1.3,2.5,2.4c0.6,1.1,0.9,2.7,0.9,4.5c0,1.8-0.3,3.4-0.9,4.5
		s-1.4,1.9-2.5,2.4c-1,0.5-2.2,0.7-3.7,0.7c-1.4,0-2.7-0.2-3.7-0.7s-1.9-1.3-2.5-2.4c-0.6-1.1-0.9-2.7-0.9-4.5
		c0-1.8,0.3-3.4,0.9-4.5c0.6-1.1,1.4-1.9,2.5-2.4C23.9,13.9,25.1,13.7,26.5,13.7z M26.5,14.2c-0.6,0-1.2,0.6-1.6,1.7
		c-0.4,1.1-0.6,3-0.6,5.5s0.2,4.3,0.6,5.5c0.4,1.1,1,1.7,1.6,1.7c0.6,0,1.2-0.6,1.7-1.7c0.4-1.1,0.6-3,0.6-5.5s-0.2-4.3-0.6-5.5
		C27.8,14.8,27.2,14.2,26.5,14.2z"/>
	<path class="st0" d="M49.6,13.8v11.8c0,0.9,0.2,1.4,0.4,1.8c0.2,0.4,0.7,0.6,1.3,0.6v0.6c-0.6-0.1-1.2-0.1-1.8-0.1
		c-0.9,0-1.7,0-2.4,0.1s-1.4,0.2-2.1,0.3v-2.2c-0.5,0.9-1,1.4-1.8,1.8c-0.8,0.4-1.7,0.6-2.7,0.6c-0.8,0-1.4-0.1-2-0.3
		c-0.5-0.2-0.9-0.5-1.1-0.8c-0.3-0.3-0.5-0.8-0.6-1.4c-0.2-0.6-0.2-1.4-0.2-2.2v-7.1c0-0.9-0.2-1.4-0.4-1.8s-0.6-0.6-1.4-0.6v-0.6
		c0.6,0.1,1.2,0.1,1.8,0.1c0.9,0,1.7,0,2.4-0.1c0.7-0.1,1.4-0.2,2.1-0.3v11.9c0,0.4,0.1,0.8,0.2,1.1c0.1,0.3,0.2,0.6,0.5,0.7
		c0.2,0.2,0.6,0.2,0.9,0.2c0.4,0,0.8-0.1,1.2-0.3c0.3-0.2,0.6-0.6,0.9-1c0.2-0.4,0.3-0.9,0.3-1.4v-7.9c0-0.9-0.2-1.4-0.4-1.8
		c-0.2-0.4-0.6-0.6-1.4-0.6v-0.6c0.6,0.1,1.2,0.1,1.8,0.1c0.9,0,1.7,0,2.4-0.1C48.3,14,48.9,13.9,49.6,13.8z"/>
	<path class="st0" d="M58.6,9.5v4.6h3.1v0.6h-3.1v11.5c0,0.5,0.1,0.8,0.2,1s0.4,0.3,0.7,0.3c0.2,0,0.6-0.1,0.9-0.2
		c0.3-0.2,0.6-0.5,0.9-1l0.5,0.2c-0.3,0.8-0.9,1.4-1.4,1.8c-0.6,0.5-1.4,0.7-2.5,0.7c-0.6,0-1.1-0.1-1.7-0.2
		c-0.5-0.2-0.9-0.4-1.2-0.7c-0.4-0.4-0.6-1-0.8-1.5C54,26,54,25.2,54,24.1v-9.5h-2.2v-0.6H54v-3.5c0.9,0,1.7-0.1,2.4-0.2
		C57.1,10.1,57.9,9.9,58.6,9.5z"/>
	<path class="st0" d="M68.6,13.8V26c0,0.8,0.2,1.4,0.4,1.6c0.2,0.2,0.7,0.4,1.3,0.4v0.6c-0.4,0-1-0.1-1.7-0.1
		c-0.7,0-1.4-0.1-2.2-0.1s-1.5,0-2.2,0.1c-0.8,0-1.4,0.1-1.8,0.1v-0.6c0.6,0,1-0.2,1.3-0.4c0.2-0.2,0.4-0.8,0.4-1.6v-8.9
		c0-0.9-0.2-1.4-0.4-1.8c-0.2-0.4-0.6-0.6-1.4-0.6v-0.6c0.6,0.1,1.2,0.1,1.8,0.1c0.9,0,1.7,0,2.4-0.1C67.2,14,68,13.9,68.6,13.8z
		 M66.1,6.8c0.9,0,1.5,0.2,2.1,0.6s0.7,1,0.7,1.7c0,0.7-0.2,1.4-0.7,1.7s-1.2,0.6-2.1,0.6c-0.9,0-1.6-0.2-2.1-0.6
		c-0.5-0.4-0.7-1-0.7-1.7s0.2-1.4,0.7-1.7C64.5,6.9,65.2,6.8,66.1,6.8z"/>
	<path class="st0" d="M77.9,13.7c0.8,0,1.4,0.1,2.1,0.2s1.1,0.5,1.7,1l-0.4,0.3c-0.2-0.3-0.6-0.6-1-0.7c-0.4-0.2-0.7-0.2-1.1-0.2
		c-0.9,0-1.6,0.6-2.1,1.8s-0.7,3-0.7,5.4c0,1.6,0.1,2.9,0.3,3.8c0.2,0.9,0.5,1.6,0.8,1.9c0.3,0.3,0.7,0.6,1.1,0.6
		c0.6,0,1.1-0.2,1.5-0.7c0.4-0.5,0.7-1,0.7-1.8l0.1,1.2c-0.3,0.9-0.8,1.6-1.4,2c-0.6,0.4-1.4,0.6-2.2,0.6c-1,0-2-0.2-2.9-0.8
		c-0.9-0.6-1.6-1.4-2.1-2.5c-0.5-1.1-0.7-2.7-0.7-4.4c0-1.7,0.2-3.1,0.8-4.3s1.3-1.9,2.2-2.5C75.6,14,76.7,13.7,77.9,13.7z
		 M85.4,13.7l0.4,0.2c-0.1,0.2-0.2,0.5-0.2,0.8c0,0.2-0.1,0.6-0.1,0.8v15.7c0,0.8,0.2,1.3,0.4,1.5c0.2,0.2,0.6,0.4,1.3,0.4v0.6
		c-0.3,0-0.9-0.1-1.6-0.1s-1.4-0.1-2.2-0.1c-1,0-1.9,0-2.8,0.1c-0.9,0-1.6,0.1-2.1,0.1v-0.6c0.8,0,1.4-0.2,1.8-0.5
		c0.4-0.3,0.6-0.9,0.6-1.8V14.5c0.6,0.2,1.1,0.2,1.7,0.2s1.1-0.2,1.6-0.3C84.7,14.1,85.1,13.9,85.4,13.7z"/>
	<path class="st0" d="M102.5,13.8v11.8c0,0.9,0.2,1.4,0.4,1.8c0.2,0.4,0.7,0.6,1.3,0.6v0.6c-0.6-0.1-1.1-0.1-1.8-0.1
		c-0.9,0-1.7,0-2.4,0.1s-1.4,0.2-2.1,0.3v-2.2c-0.5,0.9-1,1.4-1.8,1.8c-0.8,0.4-1.7,0.6-2.7,0.6c-0.8,0-1.4-0.1-2-0.3
		c-0.5-0.2-0.9-0.5-1.1-0.8c-0.3-0.3-0.5-0.8-0.6-1.4c-0.2-0.6-0.2-1.4-0.2-2.2v-7.1c0-0.9-0.2-1.4-0.3-1.8
		c-0.2-0.4-0.6-0.6-1.4-0.6v-0.6c0.6,0.1,1.2,0.1,1.8,0.1c0.9,0,1.7,0,2.4-0.1c0.7-0.1,1.4-0.2,2.1-0.3v11.9c0,0.4,0.1,0.8,0.2,1.1
		s0.2,0.6,0.5,0.7c0.2,0.2,0.6,0.2,0.9,0.2c0.4,0,0.8-0.1,1.2-0.3s0.6-0.6,0.9-1c0.2-0.4,0.3-0.9,0.3-1.4v-7.9
		c0-0.9-0.2-1.4-0.4-1.8c-0.2-0.4-0.6-0.6-1.3-0.6v-0.6c0.6,0.1,1.2,0.1,1.8,0.1c0.9,0,1.7,0,2.4-0.1
		C101.1,14,101.9,13.9,102.5,13.8z"/>
	<path class="st0" d="M112.7,13.7c1.7,0,3,0.5,3.9,1.4c0.9,1,1.4,2.6,1.4,4.8h-9v-0.6h5.2c0.1-0.9,0-1.8-0.1-2.6
		c-0.1-0.8-0.3-1.4-0.6-1.8c-0.2-0.5-0.6-0.7-1-0.7c-0.6,0-1,0.4-1.4,1.2c-0.4,0.8-0.6,2.2-0.7,4.1l0.1,0.2
		c-0.1,0.2-0.1,0.4-0.1,0.6s0,0.5,0,0.7c0,1.3,0.2,2.3,0.5,3.1c0.3,0.8,0.8,1.3,1.3,1.6c0.5,0.3,1,0.5,1.6,0.5c0.3,0,0.6-0.1,1-0.2
		c0.4-0.1,0.8-0.3,1.2-0.6c0.4-0.2,0.9-0.7,1.2-1.4l0.5,0.2c-0.2,0.7-0.6,1.4-1,2.2c-0.5,0.7-1.1,1.3-1.9,1.8
		c-0.8,0.5-1.7,0.7-2.8,0.7c-1.2,0-2.3-0.2-3.3-0.8c-1-0.6-1.8-1.4-2.3-2.4c-0.6-1.1-0.9-2.6-0.9-4.3c0-1.8,0.3-3.2,0.9-4.4
		c0.6-1.1,1.4-2,2.5-2.6C110.2,14,111.4,13.7,112.7,13.7z"/>
</g>
</svg>
